<svg aria-hidden="true" style="position: absolute; width: 0; height: 0; overflow: hidden;" version="1.1" xmlns="http://www.w3.org/2000/svg" xmlns:xlink="http://www.w3.org/1999/xlink">
<defs>
<symbol id="icon-logo" viewBox="0 0 128 32">
<path fill="#f4e041" style="fill: var(--color1, #f4e041)" d="M35.42 27.82c0.17 1.224-0.293 2.392-1.132 3.125-0.156 0.138-0.324 0.258-0.504 0.362-0.163 0.093-0.333 0.173-0.513 0.236-0.408 0.145-0.833 0.198-1.251 0.171-0.011 0-0.023 0-0.034-0.003-0.841-0.060-1.652-0.442-2.225-1.052-0.931-0.989-0.904-2.218-0.893-2.475 0-0.124 0.006-0.244 0.020-0.363h-10.114c0.014 0.119 0.020 0.24 0.020 0.363 0.011 0.257 0.038 1.486-0.892 2.475-0.574 0.61-1.384 0.992-2.225 1.052-0.011 0.003-0.023 0.003-0.034 0.003-0.418 0.027-0.843-0.027-1.251-0.171-0.18-0.063-0.35-0.143-0.513-0.236-0.18-0.104-0.348-0.224-0.504-0.361-0.001 0-0.001-0.001-0.001-0.001-0.837-0.734-1.3-1.901-1.13-3.125h-3.643c0.024-0.090 0.050-0.181 0.074-0.271 0.453-1.668 0.907-3.338 1.36-5.006l0.297-0.014 3.48-0.154c0.157-0.007 0.278-0.138 0.271-0.292-0.007-0.156-0.136-0.276-0.296-0.268l-3.597 0.16c0.164-0.609 0.33-1.216 0.494-1.824l3.107 0.255c0.146 0 0.271-0.111 0.282-0.257 0.013-0.154-0.102-0.29-0.258-0.303l-2.98-0.247c0.167-0.616 0.334-1.232 0.501-1.847l0.266 0.102 2.652 1.015c0.033 0.013 0.068 0.020 0.102 0.020 0.113 0 0.221-0.069 0.264-0.18 0.057-0.145-0.016-0.307-0.162-0.363l-2.973-1.138c1.469-5.408 2.939-10.815 4.408-16.222 1.061 3.233 2.12 6.466 3.18 9.697 0.748-0.376 2.492-1.146 4.75-1.111h0.020c2.258-0.035 4.002 0.735 4.75 1.111 1.060-3.231 2.119-6.464 3.18-9.697 1.469 5.406 2.939 10.814 4.408 16.222l-0.266 0.101-2.707 1.037c-0.146 0.056-0.22 0.219-0.163 0.363 0.044 0.111 0.152 0.18 0.265 0.18 0.034 0 0.068-0.007 0.102-0.020l2.918-1.117c0.167 0.615 0.334 1.231 0.501 1.847l-2.98 0.247c-0.156 0.013-0.272 0.149-0.259 0.303 0.013 0.146 0.137 0.257 0.282 0.257h0.024l3.084-0.255c0.164 0.608 0.33 1.215 0.494 1.824l-0.296-0.014-3.302-0.146c-0.16-0.006-0.289 0.112-0.296 0.268-0.007 0.154 0.115 0.285 0.271 0.292l3.779 0.168c0.453 1.668 0.907 3.338 1.36 5.006 0.024 0.090 0.050 0.181 0.074 0.271h-3.643z"></path>
<path fill="#000" style="fill: var(--color2, #000)" opacity="0.87" d="M39.431 28.1l-0.074-0.269-0.077-0.282-1.357-4.994-0.295-0.013-0.297-0.014 1.361 5.010h-3.599l0.044 0.319c0.135 0.964-0.154 1.898-0.734 2.572-0.111 0.129-0.232 0.248-0.363 0.355-0.039 0.034-0.081 0.066-0.122 0.096-0.085 0.064-0.173 0.122-0.265 0.174-0.151 0.088-0.312 0.164-0.48 0.223-0.281 0.1-0.572 0.153-0.865 0.161-0.096 0.003-0.193 0-0.289-0.006-0.094-0.006-0.187-0.017-0.28-0.032-0.663-0.105-1.296-0.428-1.772-0.934-0.791-0.841-0.834-1.868-0.816-2.283 0-0.122 0.006-0.23 0.017-0.331l0.037-0.313h-10.75l0.037 0.313c0.011 0.101 0.018 0.209 0.018 0.342 0.017 0.404-0.027 1.431-0.817 2.272-0.476 0.506-1.109 0.829-1.771 0.934-0.093 0.015-0.187 0.027-0.28 0.032-0.096 0.006-0.193 0.009-0.289 0.006-0.295-0.009-0.586-0.062-0.867-0.161-0.167-0.059-0.327-0.133-0.477-0.222h-0.001c-0.092-0.052-0.181-0.111-0.266-0.175-0.041-0.030-0.082-0.062-0.122-0.096-0.13-0.107-0.252-0.226-0.363-0.355-0.579-0.673-0.868-1.608-0.734-2.572l0.044-0.319h-3.598l1.361-5.010-0.297 0.014-0.296 0.013-1.507 5.545h3.7c-0.093 1.649 0.864 3.175 2.366 3.706 1.308 0.463 2.84 0.079 3.813-0.957 0.936-0.996 0.989-2.206 0.969-2.666 0-0.028-0.001-0.056-0.001-0.083h9.509v0.070c-0.021 0.473 0.031 1.682 0.968 2.679 0.7 0.744 1.686 1.151 2.67 1.151 0.387 0 0.774-0.063 1.143-0.194 1.502-0.53 2.459-2.057 2.366-3.706h3.7zM10.682 20.15l-0.288-0.024-0.504 1.861 0.297-0.013 0.296-0.014 0.486-1.786-0.288-0.024zM31.796 0l-0.296 0.899c-0.884 2.697-1.769 5.394-2.653 8.089l-0.426 1.301c-1.078-0.502-2.676-1.031-4.58-0.998h-0.015c-1.91-0.031-3.507 0.495-4.585 0.998l-0.426-1.301c-0.884-2.695-1.768-5.392-2.653-8.089l-0.296-0.899-4.648 17.105 0.266 0.103 0.266 0.101 4.167-15.338c0.786 2.398 1.572 4.794 2.357 7.191l0.63 1.919 0.295-0.149c1.014-0.511 2.645-1.117 4.622-1.080h0.024c1.983-0.034 3.602 0.57 4.617 1.080l0.296 0.149 0.629-1.919c0.785-2.397 1.571-4.793 2.359-7.191l4.167 15.338 0.266-0.101 0.265-0.103-4.648-17.105zM11.068 17.65l-0.523 1.925 0.575 0.048 0.48-1.768-0.533-0.205zM36.593 17.651l-0.265 0.101-0.266 0.102 0.48 1.768 0.288-0.024 0.286-0.022-0.523-1.925zM37.265 20.126l-0.574 0.048 0.486 1.786 0.296 0.014 0.296 0.013-0.504-1.861z"></path>
<path fill="#000" style="fill: var(--color2, #000)" opacity="0.87" d="M26.076 18.399c-0.333 0-0.602-0.267-0.602-0.596v-3.614c0-0.33 0.269-0.596 0.602-0.596s0.602 0.267 0.602 0.596v3.614c0 0.328-0.269 0.596-0.602 0.596z"></path>
<path fill="#000" style="fill: var(--color2, #000)" opacity="0.87" d="M21.939 17.768c-0.33 0.035-0.628-0.202-0.663-0.53l-0.293-2.728c-0.035-0.327 0.204-0.622 0.535-0.657 0.33-0.035 0.628 0.202 0.663 0.53l0.293 2.728c0.035 0.328-0.204 0.622-0.535 0.657z"></path>
<path fill="#000" style="fill: var(--color2, #000)" opacity="0.87" d="M14.615 18.709c-0.042 0.111-0.15 0.18-0.264 0.18-0.034 0-0.069-0.007-0.102-0.020l-7.037-2.694c-0.147-0.056-0.22-0.219-0.163-0.363s0.221-0.216 0.367-0.16l7.037 2.694c0.146 0.056 0.218 0.219 0.161 0.363z"></path>
<path fill="#000" style="fill: var(--color2, #000)" opacity="0.87" d="M14.068 20.149c-0.011 0.146-0.136 0.257-0.282 0.257h-0.024l-7.519-0.623c-0.156-0.013-0.272-0.149-0.258-0.303 0.013-0.154 0.147-0.269 0.306-0.255l7.519 0.622c0.156 0.013 0.271 0.149 0.258 0.303z"></path>
<path fill="#000" style="fill: var(--color2, #000)" opacity="0.87" d="M14.079 22.083c0.007 0.154-0.113 0.285-0.271 0.292l-7.55 0.335c-0.15 0-0.276-0.118-0.282-0.268-0.007-0.156 0.113-0.286 0.269-0.293l7.538-0.334c0.16-0.009 0.289 0.112 0.296 0.268z"></path>
<path fill="#000" style="fill: var(--color2, #000)" opacity="0.87" d="M40.445 16.175l-7.037 2.694c-0.034 0.013-0.068 0.020-0.102 0.020-0.113 0-0.221-0.069-0.265-0.18-0.057-0.145 0.017-0.307 0.163-0.363l7.037-2.694c0.145-0.056 0.31 0.015 0.367 0.16 0.055 0.145-0.017 0.307-0.163 0.363z"></path>
<path fill="#000" style="fill: var(--color2, #000)" opacity="0.87" d="M41.67 19.48c0.013 0.154-0.103 0.29-0.259 0.303l-7.543 0.623c-0.145 0-0.269-0.111-0.282-0.257-0.013-0.154 0.103-0.29 0.259-0.303l7.519-0.622c0.156-0.015 0.293 0.101 0.306 0.255z"></path>
<path fill="#000" style="fill: var(--color2, #000)" opacity="0.87" d="M41.68 22.442c-0.007 0.15-0.132 0.268-0.283 0.268h-0.013l-7.537-0.335c-0.156-0.007-0.278-0.138-0.271-0.292 0.007-0.156 0.136-0.274 0.296-0.268l7.537 0.334c0.157 0.007 0.278 0.138 0.271 0.293z"></path>
<path fill="#fff" style="fill: var(--color3, #fff)" d="M31.903 29.021c0.108 0.309 0.202 0.685 0.232 1.116 0.035 0.507-0.029 0.947-0.117 1.296l-0.115-2.412z"></path>
<path fill="#000" style="fill: var(--color2, #000)" opacity="0.87" d="M32.019 31.713c-0.023 0-0.045-0.003-0.068-0.008-0.151-0.037-0.245-0.19-0.207-0.34 0.099-0.4 0.136-0.807 0.108-1.21-0.024-0.349-0.098-0.7-0.217-1.043-0.051-0.146 0.027-0.306 0.176-0.356s0.309 0.027 0.36 0.174c0.136 0.389 0.218 0.788 0.247 1.187 0.033 0.462-0.010 0.926-0.123 1.384-0.033 0.126-0.149 0.212-0.275 0.212z"></path>
<path fill="#fff" style="fill: var(--color3, #fff)" d="M33.75 28.91c0.174 0.276 0.324 0.613 0.371 0.999 0.057 0.453-0.046 0.848-0.186 1.162l-0.185-2.161z"></path>
<path fill="#000" style="fill: var(--color2, #000)" opacity="0.87" d="M33.935 31.35c-0.038 0-0.077-0.008-0.115-0.024-0.143-0.063-0.208-0.229-0.145-0.37 0.15-0.337 0.204-0.678 0.163-1.015-0.037-0.295-0.147-0.592-0.33-0.885-0.082-0.132-0.041-0.305 0.092-0.386s0.307-0.041 0.39 0.091c0.227 0.362 0.364 0.737 0.411 1.113 0.054 0.438-0.016 0.878-0.207 1.309-0.047 0.105-0.15 0.167-0.259 0.167z"></path>
<path fill="#fff" style="fill: var(--color3, #fff)" d="M15.758 29.021c-0.108 0.309-0.202 0.685-0.232 1.116-0.036 0.507 0.028 0.947 0.117 1.296l0.115-2.412z"></path>
<path fill="#000" style="fill: var(--color2, #000)" opacity="0.87" d="M15.639 31.714c-0.127 0-0.242-0.086-0.275-0.213-0.113-0.456-0.156-0.922-0.123-1.384 0.027-0.4 0.111-0.798 0.247-1.187 0.051-0.146 0.213-0.225 0.36-0.174s0.227 0.21 0.176 0.356c-0.119 0.342-0.193 0.692-0.217 1.042-0.028 0.403 0.008 0.81 0.108 1.21 0.037 0.15-0.055 0.303-0.207 0.34-0.023 0.007-0.045 0.010-0.068 0.010z"></path>
<path fill="#fff" style="fill: var(--color3, #fff)" d="M13.91 28.91c-0.174 0.276-0.324 0.613-0.371 0.999-0.057 0.453 0.046 0.848 0.186 1.162l0.185-2.161z"></path>
<path fill="#000" style="fill: var(--color2, #000)" opacity="0.87" d="M13.724 31.35c-0.109 0-0.213-0.063-0.259-0.167-0.191-0.429-0.262-0.87-0.207-1.309 0.047-0.376 0.184-0.749 0.411-1.113 0.082-0.132 0.256-0.173 0.39-0.091s0.174 0.254 0.092 0.386c-0.183 0.292-0.293 0.591-0.33 0.885-0.041 0.337 0.013 0.678 0.163 1.015 0.064 0.142-0.001 0.307-0.145 0.37-0.038 0.017-0.076 0.024-0.115 0.024z"></path>
<path fill="#000" style="fill: var(--color2, #000)" opacity="0.87" d="M10.283 28.060h-9.982c-0.166 0-0.301-0.108-0.301-0.239s0.136-0.239 0.301-0.239h9.982c0.166 0 0.301 0.107 0.301 0.239s-0.136 0.239-0.301 0.239z"></path>
<path fill="#000" style="fill: var(--color2, #000)" opacity="0.87" d="M46.627 28.11h-9.385c-0.156 0-0.283-0.126-0.283-0.281s0.127-0.281 0.283-0.281h9.385c0.156 0 0.283 0.126 0.283 0.281s-0.126 0.281-0.283 0.281z"></path>
<path fill="#000" style="fill: var(--color2, #000)" opacity="0.87" d="M26.713 22.947c-0.204 0.525-0.676 1.093-1.275 1.179-0.554 0.077-1.064-0.216-1.431-0.672-0.035 0.097-0.079 0.196-0.136 0.296-0.092 0.163-0.586 0.968-1.411 0.968h-0.023c-0.785-0.014-1.466-0.722-1.585-1.65-0.018-0.154 0.091-0.295 0.246-0.313 0.153-0.020 0.298 0.090 0.316 0.243 0.091 0.716 0.596 1.152 1.032 1.159h0.011c0.52 0 0.878-0.61 0.918-0.68 0.195-0.348 0.191-0.704 0.156-0.939-0.013-0.043-0.024-0.087-0.035-0.13-0.545 0.063-1.016-0.126-1.102-0.472-0.098-0.393 0.34-0.839 0.979-0.996 0.64-0.157 1.238 0.034 1.336 0.427 0.082 0.324-0.2 0.683-0.659 0.888 0.014 0.052 0.027 0.114 0.038 0.181 0.229 0.755 0.816 1.197 1.269 1.135 0.351-0.051 0.681-0.453 0.825-0.824 0.122-0.314 0.105-0.61 0.069-0.803-0.027-0.153 0.075-0.299 0.228-0.327 0.156-0.027 0.302 0.074 0.33 0.226 0.048 0.264 0.071 0.668-0.098 1.104z"></path>
<path fill="#000" style="fill: var(--color2, #000)" opacity="0.87" d="M53.916 22.878c-0.484 0-0.726-0.133-0.726-0.4v-10.988h-3.487c-0.121 0-0.212-0.042-0.273-0.127s-0.091-0.224-0.091-0.418v-0.291c0-0.194 0.030-0.334 0.091-0.418s0.151-0.127 0.273-0.127h8.517c0.133 0 0.224 0.042 0.272 0.127 0.061 0.085 0.091 0.224 0.091 0.418v0.291c0 0.194-0.030 0.334-0.091 0.418-0.048 0.085-0.139 0.127-0.272 0.127h-3.432v10.988c0 0.267-0.242 0.4-0.726 0.4h-0.145zM61.268 22.841c-0.194 0-0.333-0.042-0.418-0.127s-0.127-0.224-0.127-0.418v-11.643c0-0.194 0.042-0.334 0.127-0.418s0.224-0.127 0.418-0.127h6.338c0.133 0 0.224 0.042 0.272 0.127 0.060 0.085 0.091 0.224 0.091 0.418v0.291c0 0.194-0.030 0.334-0.091 0.418-0.049 0.085-0.139 0.127-0.272 0.127h-5.284v4.148h4.74c0.133 0 0.224 0.042 0.272 0.127 0.061 0.085 0.091 0.224 0.091 0.418v0.291c0 0.194-0.030 0.334-0.091 0.418-0.048 0.085-0.139 0.127-0.272 0.127h-4.74v4.439h5.303c0.133 0 0.224 0.042 0.272 0.127 0.061 0.085 0.091 0.224 0.091 0.418v0.291c0 0.194-0.030 0.334-0.091 0.418-0.049 0.085-0.139 0.127-0.272 0.127h-6.356zM73.288 22.95c-0.726 0-1.398-0.085-2.016-0.255s-1.084-0.376-1.398-0.619c-0.23-0.17-0.345-0.321-0.345-0.455 0-0.145 0.079-0.346 0.236-0.6 0.169-0.255 0.303-0.382 0.4-0.382 0.048 0 0.175 0.061 0.381 0.182 0.375 0.206 0.775 0.382 1.199 0.528 0.436 0.145 0.95 0.218 1.544 0.218 0.702 0 1.271-0.194 1.707-0.582 0.448-0.4 0.672-0.922 0.672-1.565 0-0.449-0.121-0.819-0.363-1.11-0.242-0.303-0.539-0.54-0.89-0.71-0.339-0.182-0.835-0.4-1.489-0.655-0.702-0.279-1.259-0.534-1.671-0.764s-0.763-0.57-1.053-1.019c-0.291-0.461-0.436-1.061-0.436-1.801 0-0.655 0.163-1.237 0.49-1.746 0.339-0.509 0.811-0.904 1.416-1.183 0.617-0.291 1.326-0.437 2.125-0.437 0.411 0 0.872 0.061 1.38 0.182 0.508 0.109 0.902 0.261 1.18 0.455 0.242 0.146 0.363 0.303 0.363 0.473 0 0.133-0.079 0.327-0.236 0.582-0.145 0.255-0.26 0.382-0.345 0.382-0.061 0-0.151-0.030-0.272-0.091-0.109-0.061-0.182-0.103-0.218-0.127-0.605-0.315-1.235-0.473-1.889-0.473-0.702 0-1.271 0.182-1.707 0.546-0.424 0.364-0.636 0.867-0.636 1.51 0 0.412 0.103 0.746 0.309 1.001 0.218 0.255 0.46 0.449 0.726 0.582 0.278 0.121 0.756 0.315 1.435 0.582 0.726 0.279 1.319 0.552 1.78 0.819 0.46 0.255 0.847 0.631 1.162 1.128 0.327 0.485 0.49 1.11 0.49 1.874 0 1.092-0.363 1.953-1.090 2.583s-1.707 0.946-2.942 0.946zM82.876 22.878c-0.484 0-0.726-0.133-0.726-0.4v-10.988h-3.487c-0.121 0-0.212-0.042-0.272-0.127s-0.091-0.224-0.091-0.418v-0.291c0-0.194 0.030-0.334 0.091-0.418s0.151-0.127 0.272-0.127h8.517c0.133 0 0.224 0.042 0.272 0.127 0.060 0.085 0.091 0.224 0.091 0.418v0.291c0 0.194-0.030 0.334-0.091 0.418-0.049 0.085-0.139 0.127-0.272 0.127h-3.432v10.988c0 0.267-0.242 0.4-0.726 0.4h-0.145zM92.842 22.878c-0.484 0-0.726-0.133-0.726-0.4v-10.988h-3.487c-0.121 0-0.212-0.042-0.272-0.127s-0.091-0.224-0.091-0.418v-0.291c0-0.194 0.030-0.334 0.091-0.418s0.151-0.127 0.272-0.127h8.517c0.133 0 0.224 0.042 0.272 0.127 0.061 0.085 0.091 0.224 0.091 0.418v0.291c0 0.194-0.030 0.334-0.091 0.418-0.048 0.085-0.139 0.127-0.272 0.127h-3.432v10.988c0 0.267-0.242 0.4-0.726 0.4h-0.145zM98.141 22.878c-0.52 0-0.781-0.103-0.781-0.309 0-0.061 0.018-0.145 0.055-0.255l4.304-11.952c0.073-0.194 0.315-0.291 0.726-0.291h0.527c0.436 0 0.678 0.097 0.726 0.291l4.304 11.97c0.036 0.085 0.054 0.164 0.054 0.236 0 0.206-0.26 0.309-0.781 0.309h-0.145c-0.424 0-0.666-0.097-0.726-0.291l-1.071-2.983h-5.339l-1.035 2.983c-0.060 0.194-0.303 0.291-0.726 0.291h-0.091zM104.842 18.22l-1.907-5.421c-0.061-0.194-0.133-0.546-0.218-1.055h-0.036c-0.097 0.485-0.188 0.837-0.272 1.055l-1.907 5.421h4.34zM112.71 22.95c-0.726 0-1.398-0.085-2.016-0.255s-1.084-0.376-1.398-0.619c-0.23-0.17-0.345-0.321-0.345-0.455 0-0.145 0.079-0.346 0.236-0.6 0.169-0.255 0.303-0.382 0.4-0.382 0.048 0 0.175 0.061 0.381 0.182 0.375 0.206 0.775 0.382 1.199 0.528 0.436 0.145 0.95 0.218 1.543 0.218 0.702 0 1.271-0.194 1.707-0.582 0.448-0.4 0.672-0.922 0.672-1.565 0-0.449-0.121-0.819-0.363-1.11-0.242-0.303-0.539-0.54-0.89-0.71-0.339-0.182-0.835-0.4-1.489-0.655-0.702-0.279-1.259-0.534-1.671-0.764s-0.762-0.57-1.053-1.019c-0.291-0.461-0.436-1.061-0.436-1.801 0-0.655 0.163-1.237 0.49-1.746 0.339-0.509 0.811-0.904 1.416-1.183 0.617-0.291 1.326-0.437 2.125-0.437 0.412 0 0.872 0.061 1.38 0.182 0.508 0.109 0.902 0.261 1.18 0.455 0.242 0.146 0.363 0.303 0.363 0.473 0 0.133-0.079 0.327-0.236 0.582-0.145 0.255-0.26 0.382-0.345 0.382-0.061 0-0.151-0.030-0.272-0.091-0.109-0.061-0.182-0.103-0.218-0.127-0.605-0.315-1.235-0.473-1.889-0.473-0.702 0-1.271 0.182-1.707 0.546-0.424 0.364-0.636 0.867-0.636 1.51 0 0.412 0.103 0.746 0.309 1.001 0.218 0.255 0.46 0.449 0.726 0.582 0.278 0.121 0.757 0.315 1.435 0.582 0.726 0.279 1.32 0.552 1.78 0.819 0.46 0.255 0.847 0.631 1.162 1.128 0.327 0.485 0.49 1.11 0.49 1.874 0 1.092-0.363 1.953-1.090 2.583s-1.707 0.946-2.942 0.946zM119.847 22.878c-0.484 0-0.726-0.133-0.726-0.4v-12.007c0-0.267 0.242-0.4 0.726-0.4h0.145c0.484 0 0.726 0.133 0.726 0.4v5.567h0.073l4.467-5.712c0.133-0.17 0.46-0.255 0.981-0.255h0.182c0.206 0 0.363 0.024 0.471 0.073 0.11 0.036 0.164 0.091 0.164 0.164 0 0.109-0.060 0.23-0.182 0.364l-4.539 5.676 5.502 5.985c0.11 0.121 0.164 0.218 0.164 0.291 0 0.097-0.060 0.164-0.181 0.2-0.122 0.036-0.327 0.055-0.618 0.055h-0.218c-0.266 0-0.479-0.012-0.635-0.036-0.145-0.024-0.267-0.091-0.364-0.2l-5.193-5.858h-0.073v5.694c0 0.267-0.242 0.4-0.726 0.4h-0.145z"></path>
</symbol>
</defs>
</svg>
